<?xml version="1.0" standalone="no"?><!DOCTYPE svg PUBLIC "-//W3C//DTD SVG 1.1//EN" "http://www.w3.org/Graphics/SVG/1.1/DTD/svg11.dtd"><svg t="1606547802061" class="icon" viewBox="0 0 1026 1024" version="1.1" xmlns="http://www.w3.org/2000/svg" p-id="1162" width="21" height="21" xmlns:xlink="http://www.w3.org/1999/xlink"><defs><style type="text/css"></style></defs><path d="M0 61.5 0 61.5 0 61.5zM780 577c-11-2-18-5.5-21-9.5-3-4.5-4-8-1.5-12l3-5.5c0.5-0.5 1.5-2 2-3 0.5-1.5 2-4.5 4.5-9 2-4.5 4-9.5 5-14 1-4.5 2-10.5 2.5-17s0.5-13.5-0.5-19.5c-1-6-3-12.5-6.5-20-3.5-7-7.5-13.5-13.5-19.5-10-10-23-16.5-39.5-19.5-16-3-32.5-3-48.5-0.5-16 2.5-31.5 5.5-45.5 9.5-14.5 4-26 7.5-35.5 11.5l-14 6.5c-7 2-13 3.5-18 4.5-4.5 0.5-8.5 0.5-11-0.5-2.5-1-4.5-2-6-3-1.5-1-2-3.5-1.5-7.5 0.5-4 0.5-7.5 1-10 0.5-3 1.5-7.5 2.5-13.5 1.5-6 2.5-11 3-14.5 0-8.5-0.5-16.5-1.5-24-1-7.5-3.5-16-7-25.5s-9-17-15.5-22.5c-7-5.5-15.5-10.5-26-14-10.5-3.5-24-4.5-40.5-3-16.5 1.5-35 5.5-56 13-25 8.5-50.5 21.5-76.5 38-26 17-48 34.5-67 52.5-19 18.5-36.5 36-52 53.5-16 17-28 31-36.5 42l-12 17c-23.5 31-41 61.5-52.5 92.5-11.5 31-17 54-16 70l0 22.5c4.5 34.5 15 65.5 31.5 92.5 17 27.5 37 49.5 60 66 23.5 17 51 31 82.5 43 31.5 12 62 20.5 91 26s59.5 9 92 11.5c53 4.5 108 0 165-12.5 57-12.5 110-34.5 159-65 49-31 84-68 104-111 12-25 18.5-49 19-71 0.5-22-3.5-40.5-11.5-54.5s-18-26.5-30.5-37c-12.5-11-24.5-18.5-35.5-23.5C798.5 581.5 788.5 578 780 577L780 577zM452 911.5c-77.5 3.5-143.5-11.5-197.5-45-54-33.5-81-76.5-81-128 0-51 27-95 80.5-132s120-57 198-61 144 9.5 198 38.5 80.5 69.5 80.5 120.5c0 51.5-27.5 98-82.5 139.5S528 908 452 911.5L452 911.5zM420.5 613.5c-21 2-39.5 7-56 14.5-16.5 7.5-29.5 16-38.5 26-9.5 9.5-17 20-23.5 31-6.5 11-11 22-13.5 33-2.5 11-4 20.5-5 29.5-0.5 9-1 16-1 21l1 8.5 0 4.5c0 2 0.5 6.5 2 13s3.5 12.5 6 18c2.5 5.5 6.5 11.5 12.5 18s12.5 12 20.5 16c47.5 23 91.5 30 132.5 21 41-9 74-29.5 99-62 10-12 16.5-27.5 20-45 3-18 2.5-36-2-54.5-4.5-18.5-12.5-35-24-50-11.5-15-28.5-26.5-51-35C476 612 450 610 420.5 613.5L420.5 613.5zM382 817c-4.5 0.5-8.5 1-12.5 0.5-4-0.5-7.5-1-11-2-3.5-1-6.5-2.5-9.5-4-3-1.5-6-3.5-8-6-2-2.5-4-5-6-7.5-2-2.5-3-5.5-4.5-8.5s-1.5-6.5-1.5-10c0-8 2-15.5 6.5-23 4.5-7.5 10-14 18-19.5 7.5-5.5 16-8.5 25.5-9 6.5-0.5 12.5-0.5 19 0.5 6 1 11.5 3 15.5 5.5 4.5 2.5 8 5.5 11.5 8.5 3 3 5.5 7 7 11.5 1.5 4.5 2 9 2 14 0 8-2.5 15.5-7 22.5-4.5 7-11 13.5-19 18.5C400 813 391.5 816 382 817L382 817zM473.5 739.5c-5 3.5-10 5-15.5 5-5.5-0.5-9-2.5-11.5-7l-2-4.5c-0.5-1.5-1-3-1-4.5l0-4.5c0-2 0.5-4 1-5.5l2-4.5c0.5-1.5 2-2.5 3-3l3-4.5c5.5-4.5 11.5-6 16.5-5.5s9 3.5 11.5 8.5c2 3 3 6 2.5 9.5-0.5 3.5-1.5 7-3 10C478.5 733.5 476 736.5 473.5 739.5L473.5 739.5zM855.5 514.5c4.5 0 8.5-1 12-3 3.5-2 6.5-5 8.5-8 2-3 3.5-6.5 4.5-10 0.5-0.5 1-2 1-3 8.5-82-20-128.5-86-140-19.5-3.5-37.5-4-54-1-5 0-9.5 1.5-13 4-3.5 2.5-6.5 5.5-9 9.5-2.5 4-4 8-4 12.5 0 7 2.5 13.5 7.5 18.5 5 5 11 7.5 18.5 7.5 56-13 86 5 90.5 54 1.5 12 0.5 23.5-2 34.5 0 7 2.5 13.5 7.5 18.5C842 512 848 514.5 855.5 514.5L855.5 514.5zM837 211c-31.5-7-74-5.5-127 4.5-0.5 0-1.5 0.5-2 1l-1 2-1 1c-8 2-14.5 6.5-19.5 13.5s-7.5 14-7.5 22c0 11 3.5 19.5 11 27 7 7 16 11 26 11l3 0c0.5 0 2.5-0.5 5-1 2.5-0.5 5-1.5 8-1.5 3-0.5 6-1 9-2s6-2 8.5-3c2.5-1 7.5-1.5 14.5-1.5 7 0 16 0.5 26.5 1.5 10.5 1 22 4 34.5 8 12.5 4.5 25 9.5 37.5 16 12.5 6.5 25 15.5 37.5 27 12.5 11.5 23.5 24.5 33 40 18.5 42.5 22.5 83 11 122.5 0 0.5 0 1.5-0.5 2-0.5 0.5-1 2.5-1.5 5.5s-1.5 5.5-2 8c-0.5 2.5-1.5 5.5-2 9.5s-1 7.5-1 10c0 6.5 2 12 5.5 16 3.5 4.5 8 7.5 13.5 9 5.5 2 11.5 2.5 19 2.5 20 0 32-12 35.5-36.5 8.5-28 13.5-54.5 14.5-80s-0.5-48-5.5-67c-4.5-19.5-11.5-37.5-21-54.5-9.5-17-20-31-32.5-43-12-12-26-22.5-41-32.5-15-9.5-29.5-17.5-43.5-23C866.5 219.5 852 214.5 837 211L837 211z" p-id="1163" fill="#3F51B5"></path></svg>